# xmcd CD database file
#
# Track frame offsets:
#	150
#	23522
#	43317
#
# Disc length: 831 seconds
#
# Revision: 0
# Processed by: cddbd v1.5PL3 Copyright (c) Steve Scherf et al.
# Submitted via: CDex 1.40Release
#
DISCID=1c033d03
DTITLE=GAKU-MC - 僕は僕でだれかじゃない
DYEAR=1999
DGENRE=ヒップ ホップ (一般)
TTITLE0=僕は僕でだれかじゃない part for you - It's gonna be alright -
TTITLE1=僕は僕でだれかじゃない part for me -I am ME-
TTITLE2=Just a little bit
EXTD=YEAR: 1999
EXTT0=
EXTT1=
EXTT2=
PLAYORDER=
